<svg xmlns="http://www.w3.org/2000/svg" version="1" width="671.504" height="522.074" viewBox="0 0 671.504 522.074"><path d="M335.887 21.58c-.92 3.477 2.264 2.85 3.54 4.13.172.957-.2 1.372-.294 2.064-1.21.03-2.418.058-3.246-.295-.71-1.552-1.662-2.863-1.77-5.017.477-.407.726-1.043 1.77-.884zM450.366 173.824c-1.34.535-3.224-.095-4.13-.885.128-2.14 5.005-2.116 4.13.884zM465.414 174.71c-.54 2.244-3.003.527-4.72.59.41-1.474 3.744-1.41 4.72-.59zM468.66 182.085c-2.992 3.15-10.17.45-13.573-.59 2.892-1.733 11.027-1.55 13.572.59zM502.295 188.28h1.18c2.895 1.533 5.977 2.877 9.146 4.132 1.74 1.068 3.302 3.612 5.607 6.196 1.98 2.217 7.084 4.083 3.54 7.67-1.182-.193-1.824-.93-1.77-2.36-2.945-4.332-7.49-7.063-11.212-10.62-.776-.307-1.812-.354-2.95-.296-1.257-1.203-2.682-2.236-3.836-3.54-.037-.53.36-.623.295-1.18zM130.238 382.424c-.1 2.256-4.017 1.53-5.016.59.123-1.787 4.32-2.03 5.016-.59zM114.896 386.555c.65 2.87-3.76 2.98-4.425 1.18-.16-2.112 3.237-2.167 4.426-1.18zM135.773 386.152c1.602-.19 4.584-.097 5.067.608.483.705-2.098 1.812-3.616 1.81-.58 0-5.42 1.173-9.193 2.485-5.5 1.912-10.477 4.227-11.152 4.528-.876.392-2.964.8-3.182.028-.218-.772 1.843-2.752 3.386-3.506 1.893-.922 15.377-5.557 18.69-5.952zM145.016 391.045c1.215-.02 2.857.077 3.22.82.365.743-.9 1.35-1.753 1.507-.776.143-3.25.422-5.935 1.273-3.403 1.08-7.137 2.797-8.114 3.208-2.048.863-2.358-1.632-.324-2.126 1.192-.29 7.936-4.6 12.906-4.682zM277.763 408.388c-.69 2.192-3.7 3.534-6.196 2.95.35-2.636 4.03-5.73 6.196-2.95zM269.796 411.338c-2.11.22-4.73.45-6.49-.295.903-2.256 5.72-1.717 6.49.295z" fill="#2c2a79" fill-rule="evenodd"/><path d="M178.92 380.653c1.454-3.052 8.767-1.214 11.803-1.77.667-1.823-1.29-3.378-2.655-4.132-3.416.827-6.274-.55-9.146 0-2.53.487-5.208 4.485-7.67 1.182.783-2.858 4.7-1.41 7.08-2.36 1.84-.735 2.104-2.225 3.54-2.95 1.38.293 2.614.73 4.426.59-6.51-14.58-16.02-30.01-22.128-46.028-1.667-4.37-2.383-9.358-3.54-14.162-1.108-4.596-2.508-9.248-3.542-13.867-1.15-5.146-.294-12.673-2.95-17.113-1.07-1.786-4.01-3.425-6.197-5.016-2.29-1.667-4.7-3.38-6.49-4.72-7.325-5.484-10.46-10.063-17.703-14.753-4.29-2.778-7.038-4.093-14.752-3.54-9.953.712-18.32 4.336-23.9 10.326-5.403 5.8-11.788 14.097-10.03 23.898 1.977 11.026 7.417 15.048 15.933 21.244 5.583 4.062 9.816 7.605 15.933 10.032 2.69 1.067 5.71 1.502 8.262 2.36 1.182.397 2.443 1.586 3.835 2.065 2.654.913 4.577.56 6.49 2.654 3.692.51 6.293 2.555 9.442 4.13 7.298 3.653 15.464 7.66 20.948 13.573 6.448 2.6 10.022 8.073 15.933 11.21 1.788 2.233 6.286 6.144 1.476 8.263.103 2.75 2.907 2.797 3.835 4.72 2.552.105 4.647.666 4.427 3.542-4.02 1.22-8.365-3.846-12.097-6.195-1.502-.946-3.765-1.035-3.54-2.656.306-2.217 2.89-.675 4.13-2.064-4.06-3.167-8.914-3.228-12.983-6.196-2.205-1.607-3.102-5.04-6.196-5.9-1.09-.303-2.605.072-3.834-.295-1.665-.497-2.757-2.104-3.835-2.36-.77-.183-1.873.36-2.655.295-2.158-.18-4.314-1.897-6.786-1.476-.993-1.463 3.036-1.508 1.475-3.54-2.685-1.362-3.547 1.32-6.49 1.18-2.86-.135-5.59-2.648-8.558-3.835-5.823-2.33-13.268-.93-20.063-2.952-4.468-1.33-8.273-4.104-12.688-6.786-6.878-4.18-15.853-9.406-20.948-15.343-4.272-4.977-10.423-13.538-11.507-21.244-.453-3.228 0-6.83 0-10.032 0-7.29.062-11.63 2.36-16.818 2.112-4.762 5.828-9.676 9.442-14.162 6.2-7.696 11.313-12.022 20.653-15.933 6.268-2.623 15.874-5.247 23.604-5.9 13.518-1.142 23.17 3.776 28.62 10.917 1.63 2.135 2.943 4.896 5.015 7.08 1.767 1.866 3.867 4.06 6.786 5.017.818-4.274-.054-8.684-2.655-11.212-.94-.915-2.52-.894-3.245-1.77-1.066-1.29-1.435-4.42-2.36-6.49-.98-2.197-1.788-4.582-2.656-6.197-1.366-2.542-3.725-3.966-4.72-6.196-1.816-4.064-2.265-11.89-.296-16.524 2.276-5.358 14.708-13.756 20.948-16.522 1.113-.493 2.39-.683 3.54-1.18 17.392-7.52 40.462-11.947 61.37-15.342 20.775-3.374 40.49-3.448 62.55-5.312 10.06-.85 21.058.684 29.506 0 3.74-.303 7.558.876 10.622-.59.25-1.26-1.073-1.987-1.18-3.246-.042-.49.86-1.23.885-1.77.044-1.03-.867-2.508-.886-3.54-.032-1.69 1.058-3.356.885-5.017-.384-3.674-5.058-4.29-5.312-7.966-1.503-.856-3.128-1.59-5.016-2.064-2.775-5.19-7.228-8.705-10.032-13.867-1.35-.423-2.883-.66-3.836-1.476-.636-3.1-1.114-6.36-3.54-7.67-1.176-.44-1.9 2.104-3.542 1.77-.28-.058-2.716-3.055-3.54-4.722-.314-.632.02-1.413-.296-2.36-.497-1.493-2.232-2.528-2.36-2.95-.363-1.19.29-1.83 0-2.655-.29-.818-1.217-1.35-1.77-2.36-1.305-2.384-2.063-6.042-3.247-7.967-.957-1.555-2.662-2.172-3.247-3.246-1.09-2-.812-5.375-1.77-6.49-.767-.61-2.817.062-3.246-.886 1.4-5.417-2.695-8.938-3.246-12.687-.46-3.14 1.937-5.758 0-8.85 1.5-3.134 1.622-6.984 2.656-10.328.48-1.554 1.783-2.758 2.065-4.13.345-1.67-.18-3.36 0-4.722 1.223-9.256 10.412-12.396 15.64-18.293 1.827.467 3.512 1.32 5.31.295 1.013-.954.352-3.582 1.475-4.426 7.373.9 13.14-5.174 20.063-4.13 1.14.172 2.355 1.176 3.54 1.18 1.434.005 2.912-1.28 4.427-1.18 2.684.176 5.31 3.44 6.196 6.196-1.69 2.84-5.37.462-7.08-.885-1.727.143-1.666 2.072-3.246 2.36-1.902-.635-3.72-.686-6.196 0-1.114.31-1.973 1.177-2.656 1.18-1.126.006-2.107-1.235-3.246-1.18-.88.043-4.92 2.38-5.9 3.246-1.375 1.212-2.137 3.616-2.95 5.016-4.64-1.456-5.454 1.755-7.672 2.95-1.6.86-3.562-.412-3.835 1.77 1.3.96 4.674-.15 5.31 1.475-.038 2.618-3.596 1.715-5.606 2.36.21 3.173 2.305 5.73 1.18 8.557-.89 2.24-3.45 2.743-5.9 3.54.015 2.57-2.296 3.797-2.952 6.492.947 1.61 3.235 1.88 4.72 2.95-.035 2.002 1.84 2.095 2.36 3.54-.573 1.098-1.026 2.317-1.474 3.542 2.146 2.772.783 9.053 3.836 10.917 1.03.543 2.997.15 3.54 1.18 1.582 3.052-1.864 4.523-1.18 6.786.727 2.4 5.387 2.026 7.672 3.834.937 3.078-3.98 5.183-2.36 7.967 2.536-.554 1.862-3.558 4.425-3.54 1.83.013 5.707 4.527 5.902 6.786.158 1.824-1.857 4.237.59 5.016 3.004.186-.01-3.866 2.065-4.425 1.812-.657 3.565 1.1 3.54 3.246 2.074 1.566 5.535 1.744 5.312 5.605-1.5 1.057-2.453-1.472-4.132-.295-1.18 4.2 3.704 4.77 5.9 6.49 1.98 1.55 2.107 4.278 4.427 5.017.048.934-.784.986-.59 2.065 2.194 2.232 4.125 4.726 7.67 5.606 1.695 2.34 3.586 4.48 6.197 5.902-.482 2.41.935 3.742 2.065 5.31-1.523 1.553.192 3.195.295 5.017.058 1.016-.697 2.132-.59 3.244.266 2.753 3.208 6.5 3.245 10.327 3.777 3.532 11.105 1.757 17.998 2.36 2.52.222 5.325-.22 7.967 0 13.284 1.107 30.543 1.406 42.78 4.722.947 1.9-1.192 1.51-1.474 2.95 2.3.43 1.825-1.912 3.54-2.065 1.706.26 3.196.738 4.427 1.476-.315 1.357-2.274 1.07-2.36 2.655 7.72 3.237 21.265.71 27.733 4.426-2.345 2.432-7.112 1.3-11.21 1.476 2.02 2.656 6.206 2.1 11.21 2.655 4.69.52 9.188 1.92 14.753 2.95 4.643.858 9.03 2.962 13.277 3.54 7.432 1.014 15.278 1.403 20.064 5.312 5.345 4.364 6.132 10.61 13.278 12.982 1.09.187 2.938-.383 3.54.294 2.995 2.217 4.16 6.266 7.67 7.966 1.534-.986 3.644-1.68 5.313-2.95 1.346-1.024 3.938-4.39 6.492-4.13 3.793.382 4.136 7.845 2.95 11.8-2.646 8.826-12.104 16.58-19.18 19.77-1.407 5.08-2.987 9.993-4.72 14.752-1.54 1.012-1.92-1.325-3.54-1.18-1.96 2.934.51 7.437-.59 11.21-.487 1.672-1.96 2.514-2.065 4.132.47 1.97 1.704 2.754 1.77 4.72.055 1.623-1.197 2.67-1.18 4.132.02 1.562 1.387 2.597 1.475 4.13.072 1.258-.688 2.124-.885 3.54-.29 2.078.43 4.374.295 6.197-.253 3.404-2.557 6.194-3.245 9.44-.458 2.162.09 4.237 0 6.492-.633 15.886-10.325 29.854-12.982 42.782-1.174 1.284-1.786 3.13-2.655 4.72 1.28 2.59 4.498 1.78 6.786 2.066 3.565.444 7.31 1.39 10.917 1.77 21.867 2.312 43.438 6.565 63.14 12.098 2.44.686 5.097 1.777 7.377 2.656 4.898 1.887 10.087 4.107 15.048 6.49 8.273 3.977 15.487 7.965 22.72 13.573 2.683 2.08 5.64 4.66 7.374 7.08 3.475 4.842 5.674 12.686 4.426 22.13-.322 2.44-2.098 5.99-3.54 7.965-6.46 8.844-19.34 16.365-30.095 20.948-7.66 3.265-15.088 6.556-23.31 9.146-7.626 2.403-14.796 5.316-23.603 7.08-5.79 1.16-12.042 3.68-17.703 4.722-14.137 2.602-29.576 5.404-44.553 7.08-9.914 1.11-24.162 2.506-34.227 3.54-16.43 1.692-31.176 1.478-47.502 2.952-5.906.533-13.846.07-19.474.59-7.195.664-16.215 0-25.078 0-8.56 0-17.536.54-25.08 0-23.543-1.687-45.262-1.665-67.565-4.72-8.906-1.222-17.43-1.443-26.85-2.952-3.958-.633-6.93-1.277-11.802-1.77-5.23-.53-10.11-3.003-15.047-3.54-1.453-.16-3.05.157-4.426 0-9.216-1.063-17.724-4.11-26.26-5.9-4.34-.912-8.413-1.29-12.39-2.657-1.413-.484-2.636-1.646-4.13-2.064-4.538-1.27-9.167-1.656-13.573-2.95-4.21-1.235-8.217-2.793-12.393-4.13-3.26-1.045-23.374-8.168-24.186-8.575-10.558-5.294-25.52-11.868-32.462-20.93-1.728-2.255-4.153-7.023-2.065-10.622-2.578-5.337 1.11-6.774 4.426-9.442 1.82-1.464 3.066-3.933 5.31-3.244.446 1.148-.07 3.587-1.18 4.13 1.494-.752 3.458-.704 5.016-1.475.943-.466 1.35-1.436 2.36-2.063.682-.424 1.776-.408 2.656-.886 1.652-.896 3.112-2.737 5.016-3.834 2.452-1.414 5.265-2.24 7.08-3.246 2.088-1.156 3.69-2.854 6.787-.59-3.764 3.22-8.786 5.18-13.867 7.08 1.295 2.743.625 2.595 0 5.606 2.546.488 5.594-.923 8.19-2.585 2.866-1.832 8.793-5.33 10.22-6.11 1.868-1.02 3.72-1.892 6.08-1.04.27 3.634-3.592 3.27-5.607 4.13-.895.385-11.654 6.12-12.98 7.082-1.82 1.32-3.595 3.063-5.017 4.426-.87 1.18.732 2.293 0 3.245-.773.74-2.575-.638-3.54.296 1.984 5.782 9.015 6.522 13.57 9.735 8.598 1.62 14.63 6.146 22.13 9.146 5.45 2.183 12.856 2.468 20.948 2.656 4.76 5.458 16.228 2.364 24.785 3.54 1.657 1.018 1.648 2.578 3.54 2.95 1.768.35 3.03-.962 5.017-1.18 1.032-.112 1.746.556 2.655.59 1.844.07 3.877-1.427 5.016.296-1.502 2.234-7.878-.403-9.442 1.77 1.908 1.924 6.457 1.822 10.328.886 1.877-.454 3.466-1.655 5.016-1.77 3.142-.233 7.306 1.624 11.802 2.36 4.97.812 10.177 1.96 14.752 2.36 16.53 1.446 35.586-.004 48.683 1.18 3.02.272 5.602-.247 7.967 0 3.955.413 8.74.717 13.867 1.18 4.624.418 9.882-.414 15.343 0 12.012.91 25.73 1.022 38.356 0 10.45-.846 20.687.374 29.8-.59 14.04-1.485 29.304-1.71 43.668-2.95 8.1-.7 16.51-1.834 23.31-2.36 5.202-.403 11.4-.66 17.998-1.18 14.06-1.11 28.135-4.163 41.896-6.49 4.4-.746 8.492-1.17 12.688-2.067 5.162-1.104 9.625-1.894 15.342-3.244 1.254-.296 2.447-1.34 3.836-1.77 1.514-.47 3.204-.43 4.72-.886 5.458-1.645 11.262-4.358 16.524-6.49 2.752-1.117 5.118-1.906 7.966-3.246 3.494-1.646 10.477-5.497 10.622-7.082.19-2.092-5.023-5.018-7.082-6.49-7.12-5.095-12.805-8.738-22.13-11.803-6.93-2.278-16.362-4.72-24.487-5.606-6.357 2.23-12.707-1.707-20.358-3.246-8.155-1.64-17.593-2.973-26.26-4.72-2.923-.59-6.488-2.444-7.966-2.36-2.613.145-6.874 6.916-9.442 9.44-3.5 3.44-7.655 5.866-10.918 7.967-7.086 4.563-16.384 10.828-25.078 12.687-4.867 1.04-8.78.193-13.867-.885-1.434 1.984.05 2.72 0 4.72-.19 7.68-6.318 15.747-13.867 17.41-3.114.685-6.662.3-10.032.59-9.676.83-19.203 3.142-29.505 2.36-5.96-.453-11.86-1.284-17.997-1.772-7.828-.62-15.77-.578-23.014-1.77-7.152-1.178-14-2.635-20.064-4.13-2.477-.612-4.203-1.32-7.67-2.066-2.843-.614-8.798-2.477-9.147-3.837-.52-2.02 1.562-2.5 1.474-4.426-1.176-1.676-5.54-.164-6.49-2.065.46-2.82 5.085-1.192 7.08-1.77.798-2.545-2.623-2.192-1.475-4.13 2.138-1.073 7.17 3.89 6.785 5.9-.355 1.858-1.816.417-2.655 2.36 1.212 1.654 2.74-.882 4.13-.886 1.302-.004 2.476 1.642 3.836 1.77 3.453.33 7.476-4.03 10.327-.885 3.726-3.294 11.563.258 15.342-3.54 10.16.007 19.15-.243 27.735-.884 1.27-.096 2.533-.848 3.835-.886 1.722-.05 3.538.843 5.31.886 4.622.11 9.25-.002 13.573-.886-.013-.505.22-.765.59-.886-2.432-11.355 7-14.7 13.867-18.588 8.104-1.744 16.23-3.25 24.784-4.13 16.428-1.692 27.34-6.147 37.766-14.753 13.927-11.496 23.282-31.127 30.98-48.684 5.92-13.5 11.097-29.317 15.933-44.258 2.075-9.992 3.542-21.456 7.08-30.98.83-1.236 2.05-2.08 2.95-3.246 1.742-.07 1.45 1.892 2.95 2.065 2.602.045 3.964-3.63 2.36-5.9-2.158.693-4.565 1.14-5.605 2.95-5.677.97-10.443 3.58-15.933 5.017-13.802 3.615-30.58 8.228-47.208 9.736-4.214.383-9.025-.185-13.572.295-1.14.12-2.26.76-3.246.886-4.785.613-9.775-.405-14.457 0-14.15 1.223-28.48 1.28-42.487 1.77-14.23.498-28.67-.367-43.373 0-1.468.037-3.21.08-4.72 0-8.685-.456-17.715-.238-26.556-1.18-10.152-1.082-24.546-2.903-35.11-3.54-5.917-.358-11.925-2.128-18-2.952-12.405-1.68-23.696-4.354-35.11-7.08-7.354-1.758-14.88-3.117-21.833-5.312-2.637-.833-4.982-2.71-7.965-2.36.157 5.758 2.396 11.212 2.95 17.113.204 2.165.403 4.425.59 6.49 1.113 12.248 3.28 22.54 4.722 35.112 1.178 10.26 4.3 20.19 7.376 29.21 5.983 17.54 14.36 33.625 23.31 47.502 2.24 2.672 4.392 4.722 7.08 7.376 1.154 1.14 2.16 2.6 3.245 3.246.668.397 1.64.28 2.36.59 2.886 1.238 5.357 3.58 8.557 5.015 5.546 2.486 11.28 4.918 17.998 6.787.644 1.323 2.148 1.785 2.065 3.835-.716.97-1.784.423-2.655 0-.097 5.604 8.993 2.022 10.03 6.49-3.898.53-10.772-.74-15.046-1.77-.314-1.375.77-2.327 0-3.245-2.356-2.938-5.35-.745-8.852-1.476-2.68-.56-4.495-3.65-6.49-4.13-3.513-.846-6.688.82-8.853-2.066-2.648.735-5.674-.055-7.67-.885-.09-2.26-.575-4.87-2.656-5.9-.704.378-1.6.564-1.77 1.475.13 1.158 3.633.483 2.655 1.77-.944 2.43-2.634-.5-3.245-1.18-5.454-1.156-7.605-11.406-12.688-12.687-5.65-1.424-11.808 3.783-16.516 0zm103.563-330.75c.33.062.46.327.59.59 1.41.034 1.952-.802 2.36-1.77-.23-.065-.343-.247-.295-.59-1.245-.8-2.656.38-2.655 1.77zm15.933 53.11c.167 1.602.627 2.913 2.656 2.654v-2.95c-.924.06-2.166-.2-2.656.295zm74.058 71.106c-13.24-.106-29.44-6.418-36.586 2.655 2 1.852 1.452 4.843 1.77 7.966 4.8 1.583 10.338-3.733 14.163-.294-.25 1.322-2.064 1.082-2.064 2.655 2.524 1.895 4.675-1.442 7.376-1.77 2.354-.285 3.71.604 6.196 1.18 2.466-1.116 4.06-2.985 7.376-1.77 1.918-1.362 3.742-3.01 6.49-3.246 4.143-.354 8.293 2.23 12.982 1.475 1.53-.247 2.803-1.406 4.426-1.77 11.764-2.65 25.013 2.458 37.472.294-2.245-4.613-8.058-2.44-13.867-2.655-4.413-.165-9.08-1.348-13.277-1.477-2.89-.088-5.74 1.07-7.67-.885v-3.246c-8.063-1.374-15.62.96-24.786.887zm-56.06.59c-8.278 4.095-17.673-4.38-25.374.59-.49 1.477 1.825 1.038.885 2.064-4.386-.29-8.624 1.122-11.507 1.476-6.723.825-13.764-.06-20.358.295-11.09.597-21.248 4.16-30.98 5.9-2.434.436-5.664.316-7.08 2.657 8.88 1.113 20.184-.903 28.324-1.77 15.052-1.605 31.083 2.234 46.323 0 1.153.714 1.896 1.84 2.655 2.95-.003 1.298-2.243 1.52-1.18 2.95 2.743 1.21 5.08-.5 7.376-1.18 1.488-.442 4.32-1.632 5.016.59-1.003 1.792-2.973.857-4.72 1.475-1.495.528-2.58 1.906-4.132 2.36-1.835.538-4.2.5-6.196.59-1.173-.435-.65-2.23-2.065-2.655-1.745-.523-2.47 1.623-5.015 1.77-1.34.078-2.907-1.017-3.836-.884-2.498.355-4.06 3.895-6.197 2.36-1.16 1.147-1.88 2.176-3.245 2.655-3.535 1.242-7.888.132-11.802.885-3.276.63-5.963 3.81-9.44 4.426-1.105.195-2.336-.104-3.542 0-11.272.967-23.63 5.528-35.7 6.49-3.893.31-6.478.865-9.147 1.18-1.3.155-2.534-.15-3.835 0-6.18.722-10.8 5.125-16.228 5.902-7.407 1.06-12.576-6.085-16.523 0 4.98 3.215 11.176 4.282 17.114 5.9 25.806 7.037 54.062 11.64 83.5 14.753 8.423.89 17.23.78 25.668 1.77 3.188.374 7.405.256 11.212.59 8.255.723 16.03.705 24.49 0 4.353-.362 8.666.638 12.98.295 1.082-.086 2.2-.764 3.247-.885 8.4-.97 17.136.068 25.376-.59 12.247-.98 24.132-1.102 37.176 0 2.774.234 5.7 1.247 8.557 1.475 5.664.453 14.228-.274 18.292-.885 5.564-.836 10.156-.754 14.753-1.77 2.463-.546 5.1-.688 6.785-1.18 1.832-.536 3.355-2.7 5.31-3.542 2.386-1.027 4.646-.81 7.378-1.18 3.803-.515 7.998-1.51 11.802-2.36 3.98-.888 7.733-2.263 10.917-3.246-1.152-3.358-4.756-5.427-7.67-7.376-8.836-5.908-19.48-6.93-31.572-10.327-3.57-1.003-6.998-2.825-10.62-3.836-20.243-5.65-45.102-6.065-67.862-10.032-5.71-.995-12.54-1.254-18.883-1.77-3.54-.29-6.885-1.635-10.327-1.476.932-3.365-.364-4.016-1.77-6.196-2.39.757-3.347 2.948-7.377 2.065-1.825 1.682-2.96 4.992 0 6.196-.92.556-2.198.753-2.36 2.066 1.363 1.43.825 3.38 1.476 5.31.618 1.836 2.244 2.89 2.065 4.722-.413 4.228-6.497 4.25-10.327 2.655-1.608-.67-2.03-2.308-3.245-3.246-1.545-1.192-3.325-.778-4.13-2.36.332-3.815-2.562-5.412-3.247-7.966-.116-.434-.436-2.58-.295-3.245.218-1.027 1.588-1.753 1.77-2.95.18-1.178-.715-2.65-.59-4.13 2.957-1.85 2.2-5.593 1.77-9.738-1.65.173-2.612-.34-3.84-.588zm60.19 10.62c1.64.166 2.67-.28 2.656-1.77-.987-2.148-4.938-.14-2.656 1.77zM94.947 405.9c-3.353 1.61-9.052 5.813-10.44 7.798-1.675 2.393-.093 5.474-2.066 7.376-1.528-.24-.752-2.787-2.36-2.95-2.084 2.337.74 5.14 2.066 6.49 1.226 1.248 7.083 5.23 13.19 8.55 5.248 2.853 19.685 10.6 23.1 11.81 2.92 1.034 6.696 1.126 10.032 1.77 2.597.502 5.613 2.3 7.967.296-.396-1.973-2.988-2.332-4.72-2.655-2.826-.528-4.575-1.083-6.492-1.77-3.592-1.288-6.246-1.88-10.032-3.542-8.358-3.67-19.245-9.018-23.308-14.752-2.033-2.868-2.98-5.918-2.655-10.325.737-1.328 3.616-3.57 4.426-4.426.81-.857 4.242-3.13 3.835-3.837-.114-.2-1.233-.462-2.54.166zm-1.455 12.03c1.21.203 1.59-3.904.456-4.23-1.134-.328-1.666 4.03-.456 4.23zm45.893 30.29c.58 3.082 6.456 5.38 8.852 2.95-2.077-1.682-5.362-3.66-8.852-2.95zm41.897 9.736c-3.88-1.626-10.37-.645-14.163-2.36 2.52 3.293 9.984 5.768 14.162 2.36z" fill="#2c2a79" fill-rule="evenodd"/><path d="M293.695 177.364c1.283-.684 3.832-.102 5.606-.295-1.008 1.576-4.327 1.167-5.605.294zM308.743 184.15c.253 1.116-1.32 1.044-1.77.59-.063-1.158 1.32-1.5 1.77-.59zM340.018 194.182c-.263.13-.528.26-.59.59-.718-.167-1.518-.253-1.475-1.18.742-.638 2.02-.823 2.065.59zM473.676 184.74c-.665.58-2.21.248-2.656-.294-.1-1.04 3.095-.904 2.656.295zM272.747 421.96h1.18v1.18c-1.016.23-1.41-.164-1.18-1.18z" fill="#2c2a79" fill-rule="evenodd"/></svg>