<?xml version="1.0" encoding="UTF-8" standalone="no"?>
<!-- Created with Inkscape (http://www.inkscape.org/) -->
<svg
   xmlns:svg="http://www.w3.org/2000/svg"
   xmlns="http://www.w3.org/2000/svg"
   version="1.0"
   width="671.50403"
   height="522.07397"
   viewBox="0 0 671.504 522.074"
   id="Layer_2"
   xml:space="preserve"><defs
   id="defs40" />
<path
   d="M 335.887,21.579 C 334.967,25.057 338.151,24.429 339.428,25.709 C 339.599,26.667 339.227,27.082 339.133,27.774 C 337.924,27.804 336.715,27.832 335.887,27.479 C 335.176,25.928 334.225,24.617 334.117,22.463 C 334.594,22.056 334.843,21.42 335.887,21.579 z "
   style="fill:#2c2a79;fill-rule:evenodd"
   id="path3" />
<path
   d="M 450.366,173.824 C 449.025,174.359 447.142,173.729 446.236,172.939 C 446.364,170.799 451.241,170.824 450.366,173.824 z "
   style="fill:#2c2a79;fill-rule:evenodd"
   id="path5" />
<path
   d="M 465.414,174.709 C 464.873,176.954 462.411,175.237 460.693,175.299 C 461.105,173.826 464.438,173.889 465.414,174.709 z "
   style="fill:#2c2a79;fill-rule:evenodd"
   id="path7" />
<path
   d="M 468.659,182.085 C 465.668,185.235 458.49,182.534 455.087,181.495 C 457.979,179.762 466.114,179.946 468.659,182.085 z "
   style="fill:#2c2a79;fill-rule:evenodd"
   id="path9" />
<path
   d="M 502.295,188.281 C 502.689,188.281 503.082,188.281 503.475,188.281 C 506.37,189.813 509.452,191.157 512.621,192.412 C 514.359,193.48 515.922,196.024 518.227,198.608 C 520.206,200.825 525.311,202.691 521.767,206.279 C 520.585,206.085 519.943,205.349 519.997,203.919 C 517.052,199.586 512.506,196.855 508.785,193.297 C 508.009,192.991 506.973,192.944 505.835,193.002 C 504.578,191.799 503.153,190.766 501.999,189.461 C 501.963,188.932 502.361,188.839 502.295,188.281 z "
   style="fill:#2c2a79;fill-rule:evenodd"
   id="path11" />
<path
   d="M 130.238,382.424 C 130.138,384.68 126.221,383.955 125.222,383.014 C 125.345,381.227 129.542,380.984 130.238,382.424 z "
   style="fill:#2c2a79;fill-rule:evenodd"
   id="path13" />
<path
   d="M 114.896,386.555 C 115.546,389.426 111.137,389.534 110.471,387.735 C 110.31,385.623 113.707,385.568 114.896,386.555 z "
   style="fill:#2c2a79;fill-rule:evenodd"
   id="path15" />
<path
   d="M 135.773,386.152 C 137.375,385.962 140.357,386.055 140.84,386.76 C 141.323,387.465 138.742,388.572 137.224,388.57 C 136.645,388.569 131.805,389.743 128.031,391.055 C 122.531,392.967 117.553,395.282 116.878,395.583 C 116.002,395.975 113.914,396.384 113.696,395.611 C 113.478,394.838 115.539,392.858 117.082,392.104 C 118.975,391.182 132.459,386.547 135.773,386.152 z "
   style="fill:#2c2a79;fill-rule:evenodd"
   id="path17" />
<path
   d="M 145.016,391.045 C 146.231,391.025 147.873,391.122 148.237,391.865 C 148.601,392.608 147.335,393.215 146.483,393.372 C 145.707,393.515 143.232,393.794 140.548,394.645 C 137.145,395.725 133.411,397.442 132.434,397.853 C 130.386,398.716 130.076,396.221 132.11,395.727 C 133.302,395.438 140.046,391.127 145.016,391.045 z "
   style="fill:#2c2a79;fill-rule:evenodd"
   id="path19" />
<path
   d="M 277.763,408.388 C 277.072,410.58 274.062,411.922 271.567,411.338 C 271.916,408.702 275.598,405.609 277.763,408.388 z "
   style="fill:#2c2a79;fill-rule:evenodd"
   id="path21" />
<path
   d="M 269.796,411.338 C 267.686,411.559 265.065,411.787 263.305,411.043 C 264.209,408.787 269.027,409.326 269.796,411.338 z "
   style="fill:#2c2a79;fill-rule:evenodd"
   id="path23" />
<path
   d="M 178.921,380.653 C 180.374,377.601 187.687,379.439 190.723,378.882 C 191.39,377.06 189.434,375.505 188.068,374.751 C 184.652,375.577 181.794,374.199 178.922,374.751 C 176.393,375.237 173.714,379.235 171.251,375.932 C 172.035,373.074 175.951,374.523 178.332,373.572 C 180.172,372.837 180.436,371.347 181.873,370.621 C 183.251,370.915 184.486,371.352 186.298,371.211 C 179.787,356.633 170.277,341.201 164.17,325.184 C 162.503,320.813 161.787,315.826 160.629,311.022 C 159.522,306.426 158.122,301.774 157.088,297.155 C 155.937,292.009 156.794,284.482 154.137,280.042 C 153.069,278.256 150.127,276.617 147.941,275.026 C 145.649,273.359 143.24,271.645 141.45,270.305 C 134.125,264.822 130.991,260.243 123.747,255.553 C 119.458,252.775 116.709,251.46 108.995,252.012 C 99.042,252.725 90.676,256.349 85.096,262.339 C 79.692,268.14 73.307,276.437 75.065,286.238 C 77.042,297.264 82.482,301.286 90.998,307.482 C 96.581,311.544 100.814,315.087 106.931,317.514 C 109.621,318.581 112.639,319.016 115.192,319.874 C 116.374,320.271 117.635,321.46 119.027,321.939 C 121.681,322.853 123.604,322.499 125.518,324.594 C 129.209,325.104 131.81,327.149 134.959,328.725 C 142.258,332.377 150.424,336.383 155.908,342.297 C 162.356,344.897 165.93,350.37 171.841,353.508 C 173.628,355.74 178.126,359.651 173.316,361.77 C 173.419,364.52 176.223,364.567 177.151,366.491 C 179.702,366.595 181.797,367.156 181.577,370.032 C 177.557,371.251 173.212,366.186 169.48,363.837 C 167.978,362.891 165.715,362.802 165.939,361.181 C 166.246,358.963 168.83,360.505 170.069,359.116 C 166.009,355.949 161.156,355.888 157.087,352.92 C 154.882,351.313 153.985,347.879 150.891,347.02 C 149.8,346.717 148.285,347.092 147.056,346.725 C 145.391,346.228 144.299,344.621 143.221,344.364 C 142.451,344.182 141.347,344.725 140.565,344.66 C 138.407,344.479 136.251,342.763 133.779,343.184 C 132.787,341.721 136.816,341.676 135.255,339.643 C 132.57,338.282 131.708,340.963 128.764,340.824 C 125.905,340.689 123.175,338.176 120.207,336.989 C 114.384,334.659 106.939,336.059 100.144,334.038 C 95.676,332.709 91.871,329.934 87.456,327.252 C 80.578,323.071 71.603,317.846 66.508,311.909 C 62.236,306.933 56.085,298.372 55.001,290.666 C 54.547,287.438 55.001,283.836 55.001,280.634 C 55.001,273.344 55.062,269.003 57.361,263.816 C 59.472,259.054 63.188,254.14 66.802,249.654 C 73.003,241.958 78.115,237.632 87.455,233.721 C 93.723,231.097 103.329,228.473 111.059,227.82 C 124.578,226.678 134.23,231.596 139.679,238.737 C 141.309,240.872 142.623,243.633 144.695,245.818 C 146.462,247.683 148.562,249.876 151.481,250.834 C 152.298,246.56 151.426,242.15 148.825,239.622 C 147.885,238.707 146.304,238.728 145.58,237.852 C 144.514,236.561 144.145,233.433 143.22,231.361 C 142.239,229.165 141.432,226.78 140.564,225.165 C 139.198,222.623 136.839,221.199 135.843,218.969 C 134.028,214.906 133.579,207.081 135.548,202.446 C 137.824,197.088 150.256,188.69 156.496,185.924 C 157.609,185.431 158.886,185.241 160.037,184.744 C 177.428,177.223 200.498,172.797 221.407,169.402 C 242.181,166.028 261.897,165.954 283.957,164.09 C 294.015,163.241 305.014,164.774 313.462,164.09 C 317.202,163.787 321.02,164.966 324.084,163.5 C 324.333,162.241 323.011,161.513 322.904,160.254 C 322.862,159.765 323.765,159.024 323.789,158.484 C 323.834,157.454 322.923,155.976 322.904,154.943 C 322.872,153.253 323.962,151.588 323.789,149.927 C 323.406,146.253 318.732,145.638 318.478,141.961 C 316.975,141.104 315.35,140.369 313.462,139.896 C 310.687,134.705 306.234,131.191 303.43,126.029 C 302.081,125.607 300.547,125.371 299.594,124.554 C 298.958,121.453 298.48,118.193 296.053,116.883 C 294.878,116.444 294.153,118.988 292.512,118.653 C 292.231,118.596 289.796,115.599 288.971,113.932 C 288.658,113.3 288.991,112.519 288.676,111.572 C 288.179,110.079 286.444,109.044 286.315,108.622 C 285.953,107.432 286.607,106.791 286.315,105.967 C 286.027,105.149 285.099,104.618 284.545,103.607 C 283.241,101.223 282.483,97.565 281.299,95.64 C 280.343,94.085 278.638,93.468 278.053,92.394 C 276.964,90.394 277.241,87.019 276.283,85.903 C 275.516,85.293 273.466,85.966 273.037,85.018 C 274.438,79.601 270.342,76.08 269.791,72.331 C 269.33,69.191 271.727,66.572 269.791,63.479 C 271.29,60.346 271.412,56.496 272.446,53.152 C 272.927,51.598 274.229,50.394 274.511,49.021 C 274.855,47.353 274.331,45.663 274.511,44.3 C 275.733,35.044 284.922,31.904 290.149,26.007 C 291.977,26.474 293.662,27.327 295.46,26.302 C 296.473,25.348 295.812,22.72 296.935,21.876 C 304.308,22.776 310.076,16.702 316.998,17.746 C 318.138,17.918 319.353,18.922 320.539,18.926 C 321.972,18.931 323.45,17.646 324.965,17.746 C 327.649,17.922 330.275,21.186 331.161,23.942 C 329.471,26.783 325.789,24.404 324.08,23.057 C 322.353,23.2 322.414,25.129 320.834,25.417 C 318.932,24.782 317.114,24.731 314.638,25.417 C 313.524,25.726 312.665,26.594 311.982,26.597 C 310.856,26.603 309.875,25.362 308.736,25.417 C 307.856,25.46 303.817,27.797 302.835,28.663 C 301.461,29.875 300.699,32.279 299.885,33.679 C 295.247,32.224 294.432,35.435 292.214,36.629 C 290.614,37.49 288.652,36.218 288.379,38.4 C 289.68,39.36 293.054,38.249 293.69,39.875 C 293.652,42.493 290.094,41.59 288.084,42.235 C 288.295,45.408 290.389,47.965 289.264,50.792 C 288.373,53.032 285.813,53.535 283.363,54.333 C 283.379,56.903 281.068,58.129 280.412,60.824 C 281.359,62.433 283.647,62.703 285.133,63.774 C 285.097,65.776 286.971,65.869 287.493,67.315 C 286.919,68.412 286.466,69.631 286.018,70.856 C 288.164,73.628 286.801,79.909 289.854,81.773 C 290.884,82.316 292.851,81.923 293.395,82.953 C 294.976,86.005 291.53,87.476 292.215,89.739 C 292.941,92.139 297.601,91.766 299.886,93.574 C 300.823,96.652 295.906,98.757 297.526,101.541 C 300.062,100.986 299.388,97.982 301.951,98 C 303.781,98.013 307.657,102.527 307.852,104.786 C 308.01,106.61 305.995,109.023 308.442,109.802 C 311.446,109.988 308.431,105.936 310.507,105.377 C 312.319,104.72 314.072,106.478 314.048,108.623 C 316.121,110.189 319.582,110.367 319.359,114.228 C 317.859,115.285 316.907,112.756 315.228,113.933 C 314.049,118.132 318.932,118.704 321.129,120.424 C 323.108,121.974 323.235,124.701 325.555,125.44 C 325.603,126.374 324.771,126.426 324.965,127.505 C 327.159,129.737 329.09,132.231 332.636,133.111 C 334.33,135.449 336.221,137.591 338.832,139.012 C 338.35,141.421 339.767,142.754 340.897,144.323 C 339.374,145.875 341.089,147.517 341.192,149.339 C 341.25,150.356 340.495,151.472 340.602,152.584 C 340.868,155.337 343.81,159.084 343.847,162.911 C 347.624,166.442 354.952,164.667 361.845,165.271 C 364.365,165.492 367.17,165.051 369.812,165.271 C 383.096,166.377 400.355,166.676 412.593,169.992 C 413.539,171.892 411.4,171.501 411.118,172.942 C 413.417,173.372 412.943,171.03 414.658,170.877 C 416.364,171.138 417.854,171.615 419.085,172.353 C 418.77,173.71 416.811,173.423 416.724,175.008 C 424.445,178.245 437.99,175.718 444.458,179.434 C 442.113,181.866 437.346,180.734 433.247,180.91 C 435.268,183.566 439.454,183.01 444.458,183.565 C 449.147,184.086 453.646,185.486 459.211,186.515 C 463.853,187.373 468.241,189.477 472.487,190.056 C 479.919,191.069 487.765,191.458 492.551,195.367 C 497.895,199.731 498.682,205.978 505.828,208.349 C 506.918,208.537 508.766,207.967 509.368,208.644 C 512.363,210.861 513.527,214.91 517.039,216.61 C 518.572,215.624 520.682,214.929 522.351,213.659 C 523.696,212.636 526.288,209.27 528.842,209.529 C 532.635,209.912 532.978,217.375 531.792,221.331 C 529.146,230.156 519.688,237.909 512.613,241.099 C 511.205,246.181 509.625,251.093 507.892,255.852 C 506.351,256.864 505.972,254.527 504.352,254.671 C 502.391,257.606 504.861,262.109 503.761,265.883 C 503.275,267.554 501.801,268.396 501.697,270.014 C 502.168,271.984 503.401,272.768 503.467,274.735 C 503.522,276.357 502.27,277.405 502.287,278.866 C 502.307,280.428 503.674,281.463 503.762,282.996 C 503.834,284.254 503.074,285.12 502.877,286.537 C 502.588,288.614 503.308,290.91 503.172,292.733 C 502.919,296.137 500.615,298.927 499.927,302.174 C 499.469,304.335 500.017,306.41 499.927,308.665 C 499.294,324.551 489.602,338.519 486.945,351.447 C 485.771,352.731 485.159,354.578 484.29,356.168 C 485.569,358.756 488.788,357.947 491.076,358.233 C 494.641,358.677 498.386,359.623 501.993,360.004 C 523.86,362.315 545.431,366.568 565.134,372.101 C 567.572,372.786 570.23,373.877 572.51,374.756 C 577.408,376.643 582.597,378.863 587.558,381.247 C 595.831,385.223 603.045,389.211 610.277,394.819 C 612.961,396.901 615.917,399.48 617.652,401.9 C 621.127,406.742 623.326,414.586 622.078,424.029 C 621.756,426.471 619.98,430.021 618.538,431.995 C 612.078,440.839 599.199,448.36 588.443,452.943 C 580.783,456.208 573.355,459.499 565.134,462.089 C 557.507,464.493 550.337,467.406 541.53,469.171 C 535.739,470.331 529.488,472.849 523.827,473.892 C 509.69,476.494 494.251,479.296 479.274,480.973 C 469.36,482.082 455.112,483.478 445.047,484.513 C 428.617,486.204 413.871,485.99 397.545,487.464 C 391.639,487.997 383.699,487.534 378.071,488.054 C 370.875,488.718 361.855,488.054 352.992,488.054 C 344.431,488.054 335.456,488.595 327.913,488.054 C 304.369,486.367 282.65,486.389 260.347,483.333 C 251.441,482.112 242.916,481.891 233.497,480.382 C 229.539,479.749 226.567,479.105 221.695,478.612 C 216.466,478.083 211.585,475.609 206.648,475.071 C 205.195,474.913 203.597,475.229 202.222,475.071 C 193.006,474.009 184.498,470.962 175.963,469.171 C 171.623,468.26 167.549,467.882 163.571,466.515 C 162.159,466.031 160.936,464.869 159.441,464.451 C 154.904,463.18 150.275,462.794 145.869,461.5 C 141.661,460.265 137.653,458.707 133.477,457.369 C 130.218,456.325 110.103,449.202 109.291,448.795 C 98.732,443.501 83.771,436.927 76.828,427.865 C 75.1,425.61 72.675,420.842 74.763,417.243 C 72.185,411.906 75.874,410.469 79.189,407.801 C 81.01,406.336 82.256,403.867 84.5,404.556 C 84.946,405.704 84.431,408.143 83.32,408.687 C 84.814,407.934 86.778,407.982 88.336,407.211 C 89.279,406.744 89.685,405.774 90.696,405.147 C 91.378,404.723 92.472,404.739 93.352,404.261 C 95.004,403.364 96.464,401.523 98.368,400.426 C 100.82,399.012 103.633,398.187 105.449,397.18 C 107.536,396.024 109.139,394.326 112.235,396.59 C 108.471,399.809 103.449,401.77 98.368,403.671 C 99.663,406.413 98.993,406.265 98.368,409.276 C 100.914,409.764 103.962,408.353 106.559,406.691 C 109.424,404.858 115.351,401.361 116.777,400.581 C 118.646,399.559 120.497,398.688 122.857,399.54 C 123.127,403.174 119.266,402.809 117.251,403.671 C 116.355,404.055 105.596,409.789 104.269,410.752 C 102.449,412.072 100.675,413.815 99.253,415.178 C 98.384,416.358 99.985,417.471 99.253,418.423 C 98.48,419.164 96.678,417.785 95.712,418.719 C 97.697,424.502 104.728,425.242 109.284,428.455 C 117.881,430.074 123.912,434.601 131.412,437.601 C 136.863,439.783 144.269,440.068 152.361,440.256 C 157.12,445.714 168.588,442.62 177.145,443.796 C 178.802,444.814 178.793,446.374 180.686,446.747 C 182.453,447.096 183.715,445.784 185.702,445.566 C 186.734,445.454 187.448,446.122 188.357,446.157 C 190.201,446.227 192.234,444.729 193.373,446.452 C 191.871,448.686 185.495,446.049 183.931,448.222 C 185.838,450.146 190.387,450.044 194.258,449.108 C 196.135,448.654 197.724,447.453 199.274,447.337 C 202.416,447.105 206.58,448.962 211.076,449.697 C 216.047,450.51 221.253,451.657 225.828,452.057 C 242.357,453.504 261.414,452.054 274.511,453.237 C 277.53,453.51 280.112,452.991 282.477,453.237 C 286.432,453.651 291.216,453.955 296.344,454.419 C 300.968,454.836 306.226,454.004 311.687,454.419 C 323.699,455.329 337.416,455.44 350.043,454.419 C 360.493,453.572 370.73,454.792 379.843,453.828 C 393.882,452.343 409.147,452.118 423.511,450.878 C 431.609,450.178 440.021,449.044 446.82,448.517 C 452.022,448.115 458.22,447.859 464.818,447.337 C 478.877,446.227 492.953,443.175 506.714,440.847 C 511.114,440.102 515.206,439.679 519.402,438.781 C 524.564,437.676 529.027,436.886 534.744,435.536 C 535.998,435.24 537.191,434.196 538.58,433.765 C 540.094,433.296 541.784,433.337 543.301,432.88 C 548.758,431.235 554.562,428.522 559.824,426.389 C 562.576,425.273 564.942,424.484 567.79,423.144 C 571.284,421.498 578.267,417.647 578.412,416.062 C 578.603,413.97 573.389,411.044 571.33,409.572 C 564.211,404.477 558.525,400.834 549.201,397.769 C 542.271,395.492 532.838,393.051 524.713,392.164 C 518.356,394.393 512.006,390.457 504.355,388.918 C 496.2,387.278 486.762,385.945 478.096,384.197 C 475.172,383.607 471.607,381.754 470.129,381.837 C 467.517,381.983 463.256,388.754 460.688,391.279 C 457.188,394.717 453.033,397.144 449.77,399.245 C 442.684,403.808 433.386,410.073 424.692,411.932 C 419.825,412.973 415.913,412.125 410.825,411.047 C 409.391,413.031 410.874,413.768 410.825,415.768 C 410.634,423.447 404.507,431.514 396.958,433.176 C 393.844,433.862 390.296,433.476 386.926,433.766 C 377.25,434.598 367.723,436.909 357.421,436.126 C 351.461,435.674 345.56,434.843 339.423,434.355 C 331.595,433.734 323.652,433.777 316.409,432.585 C 309.258,431.407 302.409,429.95 296.346,428.454 C 293.869,427.843 292.143,427.136 288.675,426.389 C 285.833,425.776 279.878,423.913 279.529,422.553 C 279.009,420.532 281.092,420.054 281.004,418.127 C 279.828,416.451 275.464,417.963 274.513,416.062 C 274.975,413.242 279.599,414.87 281.594,414.292 C 282.392,411.747 278.971,412.1 280.119,410.161 C 282.258,409.089 287.29,414.052 286.905,416.061 C 286.55,417.92 285.089,416.479 284.25,418.421 C 285.462,420.076 286.99,417.54 288.381,417.536 C 289.682,417.532 290.856,419.178 292.216,419.307 C 295.669,419.635 299.692,415.276 302.543,418.421 C 306.269,415.126 314.106,418.678 317.885,414.881 C 328.045,414.887 337.035,414.637 345.62,413.996 C 346.89,413.9 348.153,413.148 349.455,413.11 C 351.177,413.059 352.993,413.953 354.766,413.996 C 359.387,414.107 364.016,413.994 368.338,413.11 C 368.325,412.605 368.558,412.345 368.928,412.224 C 366.496,400.869 375.927,397.525 382.795,393.636 C 390.899,391.892 399.026,390.387 407.579,389.505 C 424.008,387.814 434.92,383.359 445.346,374.753 C 459.273,363.257 468.628,343.626 476.325,326.069 C 482.245,312.57 487.423,296.753 492.259,281.812 C 494.335,271.82 495.802,260.356 499.339,250.832 C 500.169,249.596 501.39,248.751 502.29,247.586 C 504.032,247.517 503.741,249.478 505.24,249.651 C 507.842,249.695 509.204,246.021 507.6,243.75 C 505.442,244.443 503.035,244.889 501.995,246.701 C 496.318,247.669 491.552,250.279 486.062,251.717 C 472.26,255.332 455.481,259.945 438.854,261.453 C 434.64,261.836 429.829,261.268 425.282,261.748 C 424.143,261.869 423.022,262.507 422.036,262.634 C 417.251,263.247 412.261,262.229 407.579,262.634 C 393.431,263.857 379.1,263.914 365.093,264.404 C 350.863,264.902 336.423,264.037 321.72,264.404 C 320.252,264.441 318.511,264.483 316.999,264.404 C 308.315,263.948 299.285,264.166 290.444,263.224 C 280.292,262.142 265.898,260.321 255.333,259.683 C 249.417,259.326 243.409,257.556 237.335,256.732 C 224.929,255.051 213.638,252.378 202.224,249.651 C 194.87,247.894 187.343,246.535 180.391,244.34 C 177.753,243.507 175.408,241.629 172.425,241.98 C 172.582,247.738 174.821,253.192 175.376,259.093 C 175.579,261.258 175.778,263.518 175.966,265.584 C 177.078,277.831 179.244,288.123 180.687,300.695 C 181.865,310.956 184.987,320.886 188.063,329.904 C 194.046,347.446 202.422,363.53 211.372,377.407 C 213.613,380.079 215.765,382.129 218.453,384.783 C 219.607,385.924 220.613,387.382 221.698,388.029 C 222.366,388.427 223.339,388.31 224.059,388.619 C 226.944,389.858 229.415,392.201 232.615,393.635 C 238.161,396.121 243.895,398.553 250.613,400.422 C 251.257,401.745 252.761,402.207 252.678,404.257 C 251.962,405.227 250.894,404.68 250.023,404.257 C 249.926,409.861 259.016,406.279 260.054,410.748 C 256.155,411.277 249.281,410.007 245.007,408.977 C 244.693,407.602 245.778,406.65 245.007,405.732 C 242.651,402.794 239.658,404.987 236.155,404.256 C 233.475,403.697 231.66,400.606 229.664,400.125 C 226.152,399.28 222.977,400.947 220.812,398.06 C 218.164,398.795 215.138,398.005 213.141,397.175 C 213.051,394.915 212.567,392.304 210.486,391.275 C 209.782,391.653 208.887,391.839 208.715,392.75 C 208.846,393.908 212.349,393.233 211.371,394.521 C 210.426,396.95 208.736,394.021 208.125,393.34 C 202.671,392.184 200.52,381.934 195.437,380.653 C 189.788,379.229 183.629,384.436 178.921,380.653 z M 282.483,49.903 C 282.814,49.965 282.942,50.23 283.073,50.493 C 284.484,50.527 285.025,49.691 285.433,48.723 C 285.203,48.658 285.09,48.476 285.138,48.133 C 283.893,47.333 282.482,48.514 282.483,49.903 z M 298.416,103.012 C 298.583,104.615 299.043,105.926 301.072,105.667 C 301.072,104.684 301.072,103.7 301.072,102.716 C 300.148,102.777 298.906,102.518 298.416,103.012 z M 372.474,174.119 C 359.233,174.014 343.035,167.702 335.888,176.775 C 337.888,178.627 337.34,181.618 337.659,184.741 C 342.457,186.323 347.996,181.007 351.821,184.446 C 351.57,185.768 349.756,185.528 349.756,187.101 C 352.28,188.995 354.431,185.658 357.132,185.33 C 359.486,185.045 360.843,185.934 363.328,186.51 C 365.794,185.394 367.388,183.525 370.704,184.74 C 372.622,183.378 374.446,181.73 377.195,181.494 C 381.337,181.14 385.487,183.723 390.176,182.969 C 391.707,182.723 392.979,181.564 394.602,181.199 C 406.366,178.55 419.615,183.658 432.074,181.494 C 429.829,176.881 424.016,179.054 418.207,178.839 C 413.794,178.675 409.128,177.492 404.93,177.363 C 402.04,177.275 399.191,178.433 397.259,176.478 C 397.259,175.396 397.259,174.314 397.259,173.232 C 389.197,171.858 381.64,174.192 372.474,174.119 z M 316.414,174.709 C 308.136,178.805 298.741,170.331 291.04,175.299 C 290.55,176.777 292.865,176.338 291.925,177.364 C 287.539,177.074 283.301,178.486 280.418,178.84 C 273.695,179.665 266.654,178.78 260.06,179.135 C 248.971,179.732 238.812,183.295 229.08,185.036 C 226.646,185.471 223.416,185.351 221.999,187.692 C 230.881,188.805 242.184,186.789 250.324,185.921 C 265.376,184.317 281.407,188.156 296.647,185.921 C 297.8,186.636 298.543,187.762 299.302,188.871 C 299.299,190.17 297.059,190.393 298.122,191.822 C 300.865,193.033 303.202,191.323 305.498,190.642 C 306.986,190.2 309.817,189.01 310.514,191.232 C 309.511,193.024 307.541,192.089 305.793,192.707 C 304.299,193.235 303.213,194.613 301.662,195.067 C 299.827,195.605 297.463,195.567 295.466,195.657 C 294.293,195.222 294.816,193.426 293.401,193.002 C 291.655,192.479 290.929,194.625 288.385,194.773 C 287.046,194.85 285.478,193.755 284.549,193.888 C 282.052,194.243 280.491,197.783 278.353,196.248 C 277.194,197.395 276.473,198.424 275.108,198.903 C 271.573,200.145 267.22,199.035 263.306,199.788 C 260.03,200.419 257.343,203.598 253.865,204.214 C 252.761,204.409 251.53,204.11 250.324,204.214 C 239.052,205.181 226.693,209.742 214.623,210.705 C 210.731,211.015 208.146,211.569 205.477,211.885 C 204.176,212.039 202.943,211.733 201.642,211.885 C 195.461,212.606 190.841,217.009 185.414,217.786 C 178.007,218.847 172.838,211.701 168.891,217.786 C 173.869,221.001 180.066,222.068 186.004,223.687 C 211.81,230.723 240.066,235.326 269.503,238.439 C 277.927,239.33 286.733,239.22 295.172,240.21 C 298.36,240.584 302.577,240.466 306.384,240.8 C 314.639,241.523 322.415,241.505 330.873,240.8 C 335.227,240.438 339.54,241.438 343.855,241.095 C 344.936,241.009 346.054,240.331 347.101,240.21 C 355.5,239.241 364.236,240.278 372.476,239.62 C 384.723,238.641 396.608,238.518 409.652,239.62 C 412.426,239.854 415.352,240.867 418.209,241.095 C 423.874,241.548 432.438,240.821 436.502,240.21 C 442.066,239.374 446.658,239.456 451.255,238.439 C 453.718,237.894 456.355,237.752 458.04,237.259 C 459.872,236.724 461.395,234.561 463.351,233.718 C 465.736,232.691 467.996,232.908 470.728,232.538 C 474.531,232.023 478.726,231.027 482.53,230.178 C 486.509,229.29 490.263,227.915 493.447,226.932 C 492.295,223.574 488.691,221.505 485.776,219.556 C 476.941,213.648 466.298,212.625 454.205,209.229 C 450.636,208.227 447.207,206.405 443.584,205.394 C 423.342,199.743 398.483,199.329 375.723,195.362 C 370.014,194.367 363.183,194.108 356.84,193.592 C 353.299,193.303 349.955,191.957 346.513,192.116 C 347.445,188.751 346.149,188.1 344.742,185.92 C 342.352,186.677 341.396,188.868 337.366,187.985 C 335.541,189.667 334.407,192.977 337.366,194.181 C 336.446,194.736 335.168,194.933 335.006,196.246 C 336.369,197.675 335.831,199.626 336.482,201.557 C 337.1,203.392 338.726,204.445 338.547,206.278 C 338.134,210.506 332.05,210.529 328.22,208.933 C 326.612,208.263 326.191,206.625 324.975,205.687 C 323.43,204.495 321.65,204.909 320.844,203.327 C 321.177,199.512 318.283,197.915 317.598,195.361 C 317.482,194.926 317.162,192.78 317.303,192.115 C 317.521,191.088 318.891,190.362 319.073,189.164 C 319.253,187.987 318.358,186.514 318.483,185.034 C 321.44,183.186 320.682,179.442 320.254,175.297 C 318.604,175.47 317.641,174.958 316.414,174.709 z M 376.604,185.331 C 378.245,185.496 379.274,185.05 379.26,183.561 C 378.273,181.412 374.322,183.42 376.604,185.331 z M 94.947,405.899 C 91.594,407.51 85.895,411.713 84.506,413.698 C 82.832,416.091 84.414,419.172 82.441,421.074 C 80.912,420.833 81.688,418.287 80.081,418.124 C 77.996,420.461 80.819,423.265 82.146,424.615 C 83.372,425.862 89.229,429.843 95.336,433.163 C 100.584,436.017 115.021,443.763 118.437,444.974 C 121.355,446.008 125.132,446.1 128.468,446.745 C 131.065,447.246 134.081,449.045 136.435,447.04 C 136.039,445.067 133.447,444.708 131.714,444.385 C 128.889,443.857 127.14,443.302 125.223,442.614 C 121.631,441.327 118.977,440.736 115.191,439.073 C 106.832,435.403 95.945,430.055 91.882,424.321 C 89.849,421.452 88.903,418.402 89.227,413.995 C 89.964,412.667 92.843,410.425 93.653,409.569 C 94.463,408.713 97.895,406.439 97.488,405.733 C 97.374,405.534 96.255,405.271 94.947,405.899 z M 93.492,417.931 C 94.702,418.133 95.082,414.026 93.948,413.699 C 92.814,413.372 92.282,417.729 93.492,417.931 z M 139.385,448.219 C 139.966,451.302 145.841,453.6 148.237,451.17 C 146.16,449.488 142.875,447.511 139.385,448.219 z M 181.282,457.956 C 177.401,456.33 170.911,457.311 167.119,455.596 C 169.64,458.889 177.104,461.364 181.282,457.956 z "
   style="fill:#2c2a79;fill-rule:evenodd"
   id="path25" />
<path
   d="M 293.695,177.364 C 294.978,176.68 297.527,177.262 299.301,177.069 C 298.292,178.646 294.973,178.237 293.695,177.364 z "
   style="fill:#2c2a79;fill-rule:evenodd"
   id="path27" />
<path
   d="M 308.743,184.15 C 308.996,185.266 307.422,185.194 306.973,184.74 C 306.91,183.582 308.293,183.24 308.743,184.15 z "
   style="fill:#2c2a79;fill-rule:evenodd"
   id="path29" />
<path
   d="M 340.018,194.182 C 339.755,194.313 339.49,194.441 339.428,194.772 C 338.71,194.605 337.91,194.519 337.953,193.592 C 338.695,192.954 339.974,192.769 340.018,194.182 z "
   style="fill:#2c2a79;fill-rule:evenodd"
   id="path31" />
<path
   d="M 473.676,184.741 C 473.011,185.319 471.465,184.988 471.02,184.446 C 470.919,183.405 474.115,183.542 473.676,184.741 z "
   style="fill:#2c2a79;fill-rule:evenodd"
   id="path33" />
<path
   d="M 272.747,421.96 C 273.14,421.96 273.534,421.96 273.927,421.96 C 273.927,422.354 273.927,422.746 273.927,423.141 C 272.911,423.369 272.518,422.976 272.747,421.96 z "
   style="fill:#2c2a79;fill-rule:evenodd"
   id="path35" />

</svg>